<svg width="45" height="45" viewBox="0 0 45 45" fill="none" xmlns="http://www.w3.org/2000/svg">
<rect width="45" height="45" rx="22.5" fill="#ACE073"/>
<path d="M12.758 34.7283C12.758 34.7283 10.7607 34.7283 10.7607 32.731C10.7607 30.7337 12.758 24.7418 22.7444 24.7418C32.7308 24.7418 34.7281 30.7337 34.7281 32.731C34.7281 34.7283 32.7308 34.7283 32.7308 34.7283H12.758ZM22.7444 22.7446C24.3336 22.7446 25.8576 22.1133 26.9813 20.9896C28.105 19.8659 28.7363 18.3418 28.7363 16.7527C28.7363 15.1636 28.105 13.6395 26.9813 12.5158C25.8576 11.3921 24.3336 10.7609 22.7444 10.7609C21.1553 10.7609 19.6313 11.3921 18.5076 12.5158C17.3839 13.6395 16.7526 15.1636 16.7526 16.7527C16.7526 18.3418 17.3839 19.8659 18.5076 20.9896C19.6313 22.1133 21.1553 22.7446 22.7444 22.7446Z" fill="#4EAD2E"/>
</svg>
