<svg width="29" height="30" viewBox="0 0 29 30" fill="none" xmlns="http://www.w3.org/2000/svg">
<g clip-path="url(#clip0_4_39)">
<path d="M1.59057 4.99661L6.73246 3.98679C6.89105 3.95571 7.05457 3.96012 7.21126 3.99972C7.36795 4.03932 7.51393 4.11313 7.63871 4.21583C7.76349 4.31854 7.86399 4.4476 7.93298 4.59375C8.00197 4.7399 8.03775 4.89952 8.03774 5.06113V6.61321C8.03758 6.96862 8.11618 7.31966 8.26789 7.64107C8.41959 7.96248 8.64062 8.24628 8.9151 8.47208L12.9193 11.7732H15.934L19.783 8.40642C20.0168 8.20158 20.2041 7.94916 20.3323 7.66606C20.4606 7.38296 20.5269 7.07571 20.5268 6.76491V2.70076C20.5268 2.3049 20.6657 1.9216 20.9193 1.61769C21.173 1.31378 21.5253 1.10853 21.9147 1.03774L27.5581 0.0120757C27.6638 -0.00735875 27.7725 -0.00329523 27.8765 0.023978C27.9804 0.0512511 28.0771 0.101066 28.1596 0.169888C28.2422 0.23871 28.3086 0.324853 28.3541 0.422206C28.3996 0.51956 28.4231 0.625738 28.423 0.733208V10.4045C28.4228 10.8327 28.3302 11.2558 28.1517 11.6449C27.9731 12.0341 27.7127 12.3802 27.3883 12.6596L23.2551 16.2189L27.5208 20.3657C27.8068 20.6432 28.0343 20.9752 28.1898 21.3421C28.3454 21.709 28.4258 22.1034 28.4264 22.5019V28.4679C28.4263 28.6694 28.3864 28.8689 28.3091 29.055C28.2318 29.241 28.1185 29.41 27.9759 29.5523C27.8332 29.6945 27.6639 29.8073 27.4776 29.884C27.2913 29.9608 27.0917 30.0001 26.8902 29.9996H21.8491C21.4239 29.9996 21.0162 29.8307 20.7156 29.5301C20.4149 29.2295 20.246 28.8218 20.246 28.3966V26.5026C20.2476 25.9855 20.044 25.4888 19.68 25.1215L15.5864 21.0279H13.063L9.25812 24.4162C9.0094 24.637 8.8102 24.9078 8.67362 25.211C8.53704 25.5143 8.46617 25.8429 8.46566 26.1755V28.4147C8.46566 28.8351 8.29868 29.2382 8.00146 29.5354C7.70423 29.8327 7.3011 29.9996 6.88076 29.9996H0.878492C0.763085 29.9998 0.648782 29.9772 0.542131 29.9331C0.435481 29.889 0.338578 29.8243 0.256972 29.7427C0.175367 29.6611 0.110664 29.5641 0.0665684 29.4575C0.0224729 29.3508 -0.000148277 29.2365 7.31382e-07 29.1211V22.2947C4.10379e-05 21.964 0.0698324 21.6369 0.20482 21.335C0.339807 21.033 0.536955 20.7629 0.783397 20.5423L5.45434 16.3626L1.08227 12.4525C0.741559 12.1475 0.469048 11.7741 0.282552 11.3567C0.096056 10.9392 -0.000226206 10.487 7.31382e-07 10.0298V6.93019C7.14458e-05 6.47353 0.158713 6.03107 0.448819 5.6784C0.738925 5.32573 1.14249 5.08474 1.59057 4.99661V4.99661Z" fill="#4EAD2E"/>
</g>
<defs>
<clipPath id="clip0_4_39">
<rect width="28.423" height="30" fill="white"/>
</clipPath>
</defs>
</svg>
